<?xml version="1.0" standalone="no"?>
<!DOCTYPE svg PUBLIC "-//W3C//DTD SVG 20010904//EN"
 "http://www.w3.org/TR/2001/REC-SVG-20010904/DTD/svg10.dtd">
<svg version="1.0" xmlns="http://www.w3.org/2000/svg"
 width="1000.000000pt" height="1000.000000pt" viewBox="0 0 1000.000000 1000.000000"
 preserveAspectRatio="xMidYMid meet">
<metadata>
Created by potrace 1.14, written by Peter Selinger 2001-2017
</metadata>
<g transform="translate(0.000000,1000.000000) scale(0.100000,-0.100000)"
fill="#000000" stroke="none">
<path d="M7043 7183 c-15 -26 -28 -50 -29 -53 -1 -6 -12 -35 -25 -68 -44 -110
-55 -375 -21 -487 5 -16 8 -38 6 -47 -1 -10 1 -18 6 -18 4 0 10 -17 14 -37 9
-57 69 -195 138 -318 33 -60 64 -112 67 -115 3 -3 12 -17 20 -32 8 -16 18 -28
23 -28 4 0 8 -7 8 -15 0 -8 3 -15 8 -15 4 0 18 -17 32 -37 42 -63 151 -173
227 -229 40 -30 76 -54 80 -54 5 0 14 -5 20 -11 9 -9 5 -21 -16 -48 -15 -20
-45 -59 -66 -88 -27 -37 -47 -54 -69 -58 -63 -13 -193 -84 -242 -132 -51 -50
-100 -113 -88 -113 3 0 2 -6 -4 -12 -5 -7 -18 -40 -27 -72 -37 -127 11 -248
116 -296 54 -24 110 -25 174 -4 55 19 71 31 132 94 79 82 121 199 126 347 3
74 6 86 33 120 16 21 41 55 54 75 28 42 46 48 55 18 3 -11 11 -20 16 -20 5 0
9 -4 9 -10 0 -5 15 -31 34 -57 30 -43 34 -57 40 -138 9 -131 28 -197 78 -276
70 -110 169 -170 272 -165 64 3 92 14 139 56 102 90 91 280 -24 417 -56 67
-164 133 -268 164 -23 7 -51 24 -62 38 -10 14 -22 31 -27 36 -4 6 -24 34 -44
64 l-37 54 74 47 c84 55 244 211 274 269 6 11 17 25 24 33 27 28 146 226 179
298 25 55 51 114 54 125 1 6 12 36 23 68 11 31 18 57 16 57 -3 0 -1 10 4 23
22 57 37 239 27 339 -3 36 -22 138 -31 168 -10 33 -64 150 -79 172 -12 17 -18
9 -64 -79 -27 -54 -63 -123 -79 -153 -15 -30 -31 -56 -35 -58 -5 -2 -8 -12 -8
-23 0 -10 -4 -19 -10 -19 -5 0 -10 -9 -10 -19 0 -11 -3 -21 -7 -23 -5 -1 -29
-43 -54 -93 -44 -85 -96 -185 -220 -423 -30 -56 -72 -137 -94 -180 -98 -188
-128 -242 -134 -242 -3 0 -16 21 -29 48 -12 26 -42 85 -68 132 -25 47 -83 157
-128 245 -46 88 -109 210 -141 270 -32 61 -87 166 -122 235 -36 69 -97 186
-136 260 -38 74 -71 136 -73 138 -1 2 -15 -18 -31 -45z m464 -1939 c19 -24 22
-38 19 -97 -2 -44 -9 -74 -20 -86 -9 -10 -16 -22 -16 -28 0 -6 -22 -33 -49
-60 -51 -51 -97 -72 -146 -67 -29 3 -71 35 -73 57 -1 6 -3 28 -6 47 -5 43 30
136 70 183 74 87 174 110 221 51z m673 14 c45 -19 111 -98 135 -160 24 -64 17
-140 -15 -168 -13 -11 -26 -20 -29 -21 -44 -6 -61 -4 -91 9 -115 53 -192 206
-153 304 23 58 73 70 153 36z"/>
<path d="M4856 6989 l-220 -221 0 -990 c-1 -544 2 -994 5 -1000 5 -7 937 -12
1679 -8 l75 0 -1 1213 c-1 666 -2 1215 -3 1220 0 4 -297 7 -658 7 l-658 -1
-219 -220z m1455 127 c0 -14 0 -2094 -1 -2194 l0 -72 -795 0 -795 0 1 23 c1
48 0 185 -2 210 -1 6 -1 37 0 67 0 30 1 62 0 70 0 8 0 65 0 125 0 61 0 117 0
125 -1 8 0 26 1 40 2 35 2 180 -1 213 -1 6 -1 37 0 67 0 30 1 62 0 70 0 8 0
65 0 125 0 61 0 117 0 125 -1 8 0 26 1 40 2 35 2 180 -1 213 -1 6 -1 37 0 67
0 30 1 64 1 75 -1 11 -1 62 0 113 l0 92 92 0 c51 0 145 2 208 3 l115 2 1 200
c1 110 2 203 3 206 1 3 264 6 586 6 424 0 585 -3 586 -11z m-1258 -173 c0 -65
-1 -125 -2 -133 -1 -13 -21 -16 -131 -16 -71 1 -130 3 -130 6 0 6 253 260 260
260 3 0 4 -53 3 -117z"/>
<path d="M3015 6960 c-10 -11 -24 -20 -31 -20 -7 0 -14 -4 -16 -8 -6 -15 -147
-113 -169 -117 -11 -2 -59 -5 -105 -6 -73 -1 -104 -10 -75 -21 5 -1 58 -49
117 -105 60 -55 124 -114 142 -130 18 -15 59 -53 91 -83 31 -30 97 -91 146
-135 48 -44 99 -91 113 -104 l25 -25 42 49 c24 27 41 54 39 59 -2 6 -6 31 -8
56 -3 25 -7 55 -10 67 -20 89 -17 130 18 207 19 42 32 76 28 76 -4 0 -2 4 3 8
6 4 16 19 22 34 15 33 18 30 -122 103 -60 31 -133 70 -162 86 -62 34 -65 35
-88 9z"/>
<path d="M2020 6862 c-16 -6 -40 -27 -40 -37 0 -3 -21 -34 -47 -68 -112 -147
-193 -260 -190 -264 2 -1 28 -5 58 -8 30 -3 65 -7 79 -9 14 -2 55 -7 92 -10
37 -4 76 -9 87 -11 10 -2 55 -6 98 -9 114 -9 193 -29 193 -50 0 -5 3 -7 6 -4
3 3 42 -11 87 -32 199 -91 246 -112 317 -143 14 -5 116 -11 234 -13 l208 -3
-39 37 c-21 20 -84 78 -138 127 -55 50 -121 110 -147 135 -26 25 -60 56 -75
69 -28 23 -192 174 -240 220 -14 13 -37 26 -52 27 -36 5 -115 13 -181 19 -30
3 -73 7 -95 9 -22 2 -74 7 -115 11 -41 4 -77 8 -80 10 -3 1 -12 0 -20 -3z"/>
<path d="M3426 6752 c-28 -46 -86 -202 -82 -222 3 -14 8 -45 11 -70 3 -25 7
-54 9 -65 3 -11 5 -35 5 -53 1 -22 7 -35 19 -39 9 -3 29 -15 45 -25 15 -11 27
-17 27 -14 0 2 30 -12 68 -32 37 -21 90 -48 117 -62 28 -14 52 -28 53 -32 2
-5 12 -8 22 -8 10 0 20 -3 22 -7 2 -5 44 -28 93 -53 50 -24 110 -56 135 -69
25 -14 51 -26 58 -27 7 -2 19 -7 26 -13 8 -7 34 -22 60 -35 l46 -23 -47 86
c-25 47 -62 115 -82 151 -20 36 -45 83 -56 105 -11 22 -22 42 -25 45 -3 3 -14
23 -25 45 -11 22 -22 42 -25 45 -3 3 -11 17 -18 31 -8 14 -32 35 -55 47 -23
12 -67 35 -97 53 -248 141 -244 137 -271 212 -13 36 -23 45 -33 29z"/>
<path d="M1555 6424 c-111 -36 -133 -42 -149 -43 -4 -1 -5 -13 -1 -28 4 -16 9
-37 11 -48 13 -71 64 -304 69 -316 3 -9 45 -44 93 -80 139 -102 130 -89 137
-209 11 -205 12 -209 72 -280 7 -8 34 -45 60 -81 28 -38 54 -65 63 -63 8 1 44
9 80 18 36 8 76 17 90 20 46 9 71 15 90 21 41 13 64 14 77 4 7 -7 13 -8 13 -4
0 5 8 1 18 -7 16 -14 51 -34 192 -111 30 -17 83 -48 118 -69 34 -21 66 -38 71
-38 5 0 31 52 59 114 l51 115 -55 188 c-30 103 -64 220 -76 260 -11 40 -29 81
-40 93 -10 11 -16 20 -13 20 3 0 -3 10 -15 22 -11 12 -20 27 -20 33 0 7 -9 20
-20 30 -11 10 -20 22 -20 27 0 4 -40 69 -90 144 -49 74 -90 139 -90 145 0 5
-3 9 -8 9 -4 0 -16 16 -27 36 -24 46 -44 55 -119 59 -33 2 -81 6 -106 10 -56
6 -121 14 -185 20 -27 3 -68 7 -90 10 -123 14 -130 13 -240 -21z"/>
<path d="M2340 6354 c0 -7 32 -56 47 -72 6 -6 15 -21 18 -32 3 -11 11 -20 16
-20 5 0 9 -5 9 -10 0 -6 32 -58 70 -116 39 -58 70 -110 70 -115 0 -5 5 -9 10
-9 6 0 10 -7 10 -15 0 -8 5 -15 10 -15 6 0 10 -5 10 -11 0 -6 11 -25 24 -42
20 -28 49 -102 62 -159 2 -10 6 -26 8 -37 2 -10 12 -41 21 -67 10 -27 18 -56
19 -64 3 -20 44 -159 56 -188 10 -22 14 -23 78 -17 37 4 90 8 117 10 28 3 66
6 85 9 19 3 67 8 105 11 67 6 120 11 139 14 5 0 -10 18 -32 39 -22 20 -91 84
-153 142 -62 58 -140 131 -173 162 -34 31 -83 76 -109 100 -36 32 -49 52 -52
78 -2 19 -12 73 -21 120 -9 47 -16 92 -16 102 0 12 -47 38 -171 94 -95 42
-178 81 -184 87 -7 5 -13 6 -13 2 0 -4 -6 -3 -12 2 -16 13 -48 24 -48 17z"/>
<path d="M3321 6223 c-42 -50 -42 -44 -2 -133 8 -19 16 -37 16 -40 1 -3 6 -16
12 -30 6 -14 19 -45 29 -70 10 -25 24 -55 32 -67 7 -12 14 -26 14 -30 0 -9 -1
-8 97 -235 39 -92 71 -171 71 -177 0 -19 24 -11 85 29 33 22 69 40 80 41 28 1
59 5 140 18 39 6 76 11 83 11 6 0 12 4 12 10 0 5 33 77 73 159 41 83 71 154
68 159 -3 5 -96 55 -206 112 -110 56 -206 107 -212 112 -7 6 -13 7 -13 3 0 -4
-6 -3 -12 3 -7 5 -67 38 -133 72 -66 35 -124 66 -130 69 -5 4 -22 12 -37 19
-25 10 -30 8 -67 -35z"/>
<path d="M2809 6155 c-1 -5 -1 -14 0 -19 1 -6 11 -57 21 -115 l19 -105 54 -51
c30 -27 107 -99 172 -160 65 -60 140 -130 166 -155 95 -89 125 -113 144 -116
11 -1 40 -6 65 -9 83 -13 110 -15 110 -11 0 3 -25 62 -55 132 -30 70 -55 134
-55 141 0 7 -4 13 -10 13 -5 0 -10 6 -10 13 0 10 -73 188 -118 287 -9 19 -17
37 -17 40 0 3 -11 27 -23 54 -12 27 -22 52 -22 56 0 4 -9 10 -20 13 -11 3 -20
1 -20 -5 0 -5 -5 -6 -11 -2 -19 12 -389 11 -390 -1z"/>
<path d="M3246 5363 c-4 -4 -60 -10 -156 -18 -36 -3 -85 -7 -110 -10 -25 -3
-71 -7 -104 -10 -63 -5 -81 -15 -92 -48 -4 -12 -22 -54 -40 -94 -19 -40 -34
-77 -34 -82 0 -5 16 -5 38 -1 20 5 53 11 72 14 19 3 80 14 135 25 55 10 119
22 142 26 35 6 50 16 90 62 26 31 53 61 58 67 16 16 45 60 45 66 0 6 -39 8
-44 3z"/>
</g>
</svg>
