<svg xmlns="http://www.w3.org/2000/svg" xmlns:xlink="http://www.w3.org/1999/xlink" version="1.1" x="0px" y="0px" viewBox="0 0 90 112.5" enable-background="new 0 0 90 90" xml:space="preserve"><path d="M69.806,20.336c-1.106-0.189-2.15-0.168-3.128,0.064c-0.04-1.452-0.108-2.907-0.208-4.362v-0.016  c-0.182-2.154-1.068-3.939-2.661-5.357c-1.641-1.463-3.55-2.122-5.728-1.972c-1.719,0.115-3.215,0.708-4.49,1.779  c-0.113-0.813-0.228-1.365-0.337-1.652l-0.015-0.032c-0.849-2.272-2.313-4.01-4.396-5.213l-0.016-0.015  c-2.252-1.323-4.696-1.414-7.33-0.273h0.017c-2.679,1.063-4.303,3.367-4.875,6.913v-0.032c-0.099,0.519-0.172,1.09-0.225,1.716  c-0.236-0.152-0.489-0.291-0.753-0.417l-0.033-0.016c-1.94-0.879-3.922-0.981-5.95-0.305c-0.012,0.006-0.029,0.011-0.047,0.016  c-2.021,0.734-3.513,2.028-4.474,3.881v-0.016c-0.919,1.615-1.245,3.877-0.979,6.783h-0.016c0.172,2.112,2.09,10.863,5.757,26.255  c-0.075-0.043-0.15-0.085-0.224-0.128h0.016c-1.881-1.11-3.949-1.96-6.207-2.551l0.016,0.016c-2.521-0.703-5.209-0.457-8.066,0.738  c-3.391,1.386-4.846,3.984-4.363,7.794v0.018c0.361,3.669,2.793,6.043,7.297,7.119c2.872,0.679,4.775,1.353,5.709,2.021l0.017,0.016  c0.843,0.742,1.741,1.955,2.694,3.641c0.005,0.012,0.009,0.022,0.016,0.032c1.314,2.41,3.313,4.287,5.998,5.629h-0.016  c0.792,0.407,1.604,0.765,2.438,1.075c-0.867,1.336-1.257,2.501-1.171,3.496c-0.13,3.317,1.831,5.968,5.885,7.955l-0.016-0.017  c2.762,1.398,5.825,2.308,9.19,2.727h0.017c3.398,0.408,6.81,0.033,10.231-1.122l0.017-0.017c4.034-1.293,6.138-4.545,6.301-9.75  c0.012-0.277-0.026-0.532-0.111-0.771c7.77-4.415,9.989-13.257,6.657-26.527c2.176-6.684,3.603-13.575,4.281-20.673v-0.015  c0.193-2.01-0.369-3.838-1.685-5.485C73.517,21.639,71.839,20.655,69.806,20.336z M67.834,48.659  c-0.138,0.42-0.149,0.843-0.034,1.267c3.413,13.039,0.593,20.988-8.467,23.848c-0.584,0.172-1.022,0.524-1.315,1.059  c-0.292,0.538-0.351,1.1-0.177,1.685c0.17,0.583,0.523,1.021,1.06,1.314s1.099,0.352,1.683,0.178  c0.199-0.056,0.396-0.115,0.594-0.178c-0.332,2.283-1.405,3.786-3.224,4.508l0.017-0.017c-2.773,0.938-5.537,1.249-8.292,0.931  c-2.835-0.351-5.419-1.109-7.746-2.277l-0.017-0.017c-2.149-1.052-3.289-2.377-3.417-3.978c0.111-0.569,0.56-1.328,1.349-2.277  c0.325,0.056,0.651,0.104,0.977,0.145c0.605,0.075,1.15-0.075,1.637-0.449c0.481-0.377,0.759-0.869,0.834-1.476  c0.077-0.605-0.074-1.15-0.449-1.635c-0.377-0.482-0.869-0.76-1.475-0.835c-2.346-0.288-4.527-0.95-6.543-1.988h-0.017  c-1.837-0.918-3.212-2.196-4.122-3.835l-0.015-0.03c-1.302-2.308-2.554-3.942-3.753-4.908l-0.016-0.017  c-1.168-1.034-3.666-2.001-7.491-2.902c-2.291-0.547-3.602-1.675-3.929-3.384v-0.016c-0.197-1.527,0.358-2.58,1.669-3.16  c1.848-0.771,3.585-0.955,5.213-0.545l0.015,0.017c1.848,0.479,3.543,1.168,5.084,2.068h0.016c1.898,1.107,3.576,1.787,5.036,2.037  c0.044,0.014,0.086,0.024,0.127,0.032c0.083,0.015,0.17,0.025,0.257,0.031c0.706,0.051,2.027,0.028,3.961-0.063h0.032  c1.522-0.056,3.43,0.414,5.726,1.411v0.016c2.246,1.016,4.067,2.957,5.47,5.822c0.268,0.547,0.689,0.921,1.267,1.123  c0.573,0.202,1.136,0.17,1.683-0.096c0.55-0.27,0.924-0.692,1.124-1.269c0.201-0.571,0.169-1.133-0.097-1.683  c-1.938-3.978-4.496-6.635-7.683-7.972v0.017c-3.077-1.349-5.649-1.947-7.713-1.797h-0.032c-0.711,0.033-1.327,0.055-1.844,0.064  c-3.945-16.499-6.014-25.834-6.207-28.002h-0.017c-0.161-1.841,0.004-3.279,0.498-4.315v-0.016c0.442-0.828,1.114-1.41,2.02-1.748  c0.017-0.005,0.032-0.011,0.048-0.016c0.896-0.287,1.773-0.238,2.631,0.144c0.011,0.006,0.022,0.011,0.033,0.017  c0.787,0.382,1.331,0.98,1.636,1.795l-0.016-0.015c0.48,1.325,0.918,2.662,1.314,4.009c0.01,0.041,0.021,0.083,0.033,0.128  c0.074,0.209,0.249,0.792,0.528,1.749c0.008,0.047,0.019,0.096,0.033,0.144c1.35,4.628,2.606,10.803,3.769,18.523  c0.089,0.608,0.377,1.094,0.866,1.46c0.496,0.361,1.046,0.495,1.652,0.401c0.6-0.088,1.082-0.378,1.444-0.866  c0.36-0.491,0.493-1.037,0.4-1.636c-1.184-7.938-2.466-14.295-3.849-19.068c-0.814-5.014-1.019-8.741-0.609-11.179v-0.032  c0.283-1.76,1.031-2.941,2.245-3.545h0.017c1.215-0.526,2.342-0.511,3.384,0.048L46.63,7.394c1.159,0.672,1.979,1.64,2.454,2.903  c0.513,1.614,1.206,11.708,2.086,30.279c-0.002,0.026-0.002,0.053,0,0.08c0.025,0.596,0.26,1.098,0.706,1.507  c0.445,0.415,0.97,0.612,1.571,0.594c0.604-0.021,1.119-0.25,1.539-0.69c0.418-0.436,0.62-0.956,0.61-1.556c0-0.027,0-0.053,0-0.08  c-0.235-14.926-0.374-22.784-0.418-23.576v-0.032c-0.067-0.95,0.198-1.784,0.801-2.502l0.017-0.016  c0.637-0.724,1.429-1.12,2.375-1.187c0.944-0.065,1.773,0.219,2.486,0.85c0.709,0.632,1.105,1.429,1.186,2.389  c0.105,1.502,0.182,3.005,0.226,4.507c0.019,1.065,0.031,2.161,0.031,3.288c-0.009,0.104-0.009,0.212,0,0.321  c-0.007,5.433-0.387,11.67-1.138,18.715c-0.065,0.605,0.096,1.145,0.48,1.621c0.381,0.478,0.873,0.751,1.475,0.818  c0.604,0.064,1.145-0.096,1.62-0.481c0.477-0.381,0.751-0.873,0.817-1.476c0.74-6.907,1.13-13.061,1.171-18.459  c0.015-0.009,0.031-0.02,0.049-0.033c0.672-0.469,1.442-0.628,2.31-0.481H69.1c0.918,0.151,1.677,0.601,2.277,1.348  c0.563,0.702,0.814,1.477,0.754,2.326C71.46,35.342,70.027,42.104,67.834,48.659z"/></svg>