<svg xmlns="http://www.w3.org/2000/svg" xmlns:xlink="http://www.w3.org/1999/xlink" version="1.1" x="0px" y="0px" viewBox="0 0 100 125" style="enable-background:new 0 0 100 100;" xml:space="preserve"><path d="M88.0815735,57.0797043l-1.6229095-2.2480354c1.1170044-0.5139198,3.901001-2.2530403,6.6879959-7.5936241  c3.686615-7.0621719,0.7563629-11.8572769,0.6301346-12.058136l-0.3566437-0.5655136L84.664444,51.3864861l-8.7557144-16.7720909  l-0.356636,0.5655136c-0.1262283,0.2008591-3.056488,4.9959641,0.630127,12.058136  c2.7870026,5.3405838,5.5709991,7.0797043,6.6880035,7.5936241l-1.6229095,2.2480354  c-0.6131058,0.1382484-2.8501205,0.7453346-4.0963516,2.4413795c-1.3794785,1.8753662-1.3333969,4.109375,0.107193,5.1943169  c0.4718475,0.3556442,1.0388641,0.5419769,1.630928,0.5419769c0.1532745,0,0.3095551-0.0130234,0.4658356-0.0380707  c1.0258408-0.1683044,2.0096054-0.8685608,2.7679596-1.972538c1.1761169-1.7130737,1.0809402-3.9891586,1.0308533-4.5982513  l1.5107117-2.1478539l1.5107117,2.1478539c-0.0500946,0.6090927-0.1452637,2.8851776,1.0308456,4.5982513  c0.7583618,1.1039772,1.7421265,1.8042336,2.7679672,1.972538c0.7603683,0.1212158,1.5027008-0.0560989,2.0967636-0.5039062  c1.4405823-1.0849419,1.4866638-3.3189507,0.107193-5.1943169C90.9316864,57.8250389,88.6946716,57.2179527,88.0815735,57.0797043z   M91.1039352,63.532093c-0.7557297,0.5002708-2.0129242-0.0678101-2.8079758-1.2688408  c-0.7951126-1.2010269-0.8270493-2.5802536-0.0713196-3.0805244c0.7557373-0.5002747,2.0128632,0.0678062,2.8079758,1.268837  C91.8277359,61.6525955,91.8596039,63.0318222,91.1039352,63.532093z M78.2962646,60.4515648  c0.7951126-1.2010307,2.0522461-1.7691116,2.8079758-1.268837c0.7557297,0.5002708,0.7238007,1.8794975-0.071312,3.0805244  c-0.7950516,1.2010307-2.0522461,1.7691116-2.8079758,1.2688408C77.4692841,63.0318222,77.501152,61.6525955,78.2962646,60.4515648z  "/><path d="M45.4726219,40.3737259v25.011879h21.9619026V34.8723564H50.9739914L45.4726219,40.3737259z M50.6734543,36.623497  v3.4496918h-3.4496918L50.6734543,36.623497z M66.4086838,64.3597641H46.4984627V41.0990295h5.2008286v-5.2008324h14.7093925  V64.3597641z"/><polygon points="16.6326847,45.4230385 20.7452526,51.7631645 22.5680218,58.0170097 29.1649837,57.3809319 22.6436577,51.318367   22.020853,47.8636055 "/><polygon points="29.5310154,46.6309547 28.5159454,47.80093 32.5195045,57.2046776 34.0841866,56.1710739 37.2678986,55.7423019   39.2434425,51.6549072 "/><polygon points="29.2570248,43.0259857 29.7046394,46.1433907 39.4664688,51.1935806 39.4753609,51.1751099 35.9209824,44.6418877   31.1794739,41.9265137 30.4263725,40.356636 "/><polygon points="16.0473232,44.5953026 22.3060532,47.4298897 27.5479584,47.4896851 19.154398,39.8115311 12.6397076,39.1886024   9.213623,43.8550377 "/><polygon points="28.0461636,48.0076141 22.5533085,47.9254036 23.1185112,51.0594025 29.5418491,57.0314293 32.0360107,57.3778648   "/><polygon points="22.1086979,58.2748489 20.2633877,51.9434891 15.7931786,45.070591 8.32866,44.2739754 5,45.2970619   6.0679164,50.2694817 8.8253641,52.3251724 9.0938454,56.2291756 11.2061357,59.0893097 15.4312172,58.1255798   20.8206997,61.1873856 "/><polygon points="28.1814079,47.4038429 29.1987953,46.2308006 28.728075,42.9538574 29.987648,40.0798264 25.544363,37.730484   22.7002602,39.814724 20.2563744,39.9169083 20.001543,39.8925514 "/><polygon points="22.5550613,58.5339394 21.3076363,61.3548737 26.831171,60.2964745 28.7761002,57.9340477 "/></svg>